<?xml version="1.0" standalone="no"?>
<!DOCTYPE svg PUBLIC "-//W3C//DTD SVG 20010904//EN"
 "http://www.w3.org/TR/2001/REC-SVG-20010904/DTD/svg10.dtd">
<svg version="1.0" xmlns="http://www.w3.org/2000/svg"
 width="300.000000pt" height="63.000000pt" viewBox="0 0 300.000000 63.000000"
 preserveAspectRatio="xMidYMid meet">
<metadata>
Created by potrace 1.10, written by Peter Selinger 2001-2011
</metadata>
<g transform="translate(0.000000,63.000000) scale(0.100000,-0.100000)"
fill="#000000" stroke="none">
<path d="M239 608 c-33 -61 -219 -539 -219 -562 0 -46 52 -62 85 -26 l18 20
22 -20 c12 -11 30 -20 41 -20 23 1 56 24 47 33 -3 4 19 7 50 7 46 0 58 -4 67
-20 16 -30 67 -27 82 5 l11 24 19 -24 c11 -14 30 -25 42 -25 22 0 56 28 56 46
0 5 -52 138 -117 296 l-116 288 -38 0 c-29 0 -41 -5 -50 -22z m68 0 c19 -25
224 -551 221 -567 -2 -9 -12 -16 -23 -16 -15 0 -37 44 -118 249 l-100 248 -96
-238 c-53 -132 -100 -245 -104 -252 -11 -17 -36 -15 -43 3 -5 11 198 536 223
578 7 11 30 8 40 -5z m11 -230 c12 -27 19 -48 17 -48 -2 0 -16 5 -30 12 -19 9
-28 9 -37 0 -32 -32 -32 -8 -1 66 16 39 22 36 51 -30z m11 -110 c35 -84 28
-98 -49 -98 -40 0 -66 20 -56 45 3 9 18 15 35 15 29 0 30 0 15 28 -17 33 -18
44 -3 59 19 19 36 4 58 -49z m-99 -14 c-21 -24 -30 -16 -18 17 9 27 12 29 20
15 6 -11 6 -22 -2 -32z m180 -115 c0 -8 -33 4 -48 16 -1 1 3 14 9 29 l13 27
13 -32 c7 -17 13 -35 13 -40z m-201 40 c15 -25 2 -39 -34 -39 -15 0 -17 3 -7
9 8 4 13 11 13 15 -6 40 7 47 28 15z m196 -98 c9 -22 14 -44 11 -50 -13 -20
-46 -12 -56 14 -9 23 -14 25 -75 25 -61 0 -66 -2 -75 -26 -7 -16 -16 -24 -28
-22 -23 4 -27 43 -8 74 16 23 22 24 115 24 l98 0 18 -39z"/>
<path d="M612 611 c-22 -18 -22 -24 -22 -295 0 -172 4 -285 10 -297 13 -23 56
-25 80 -4 15 14 18 14 30 0 18 -22 66 -19 83 5 l14 20 18 -20 c24 -26 70 -26
88 0 15 22 42 19 51 -6 9 -22 63 -17 80 7 13 20 13 25 -1 53 -9 17 -33 54 -55
83 -21 29 -38 56 -38 60 0 4 16 21 35 36 51 41 84 110 79 170 -6 81 -40 135
-114 182 -37 23 -48 25 -178 25 -121 0 -142 -2 -160 -19z m352 -45 c45 -34 76
-95 76 -151 0 -76 -55 -156 -116 -171 -23 -6 -21 -9 41 -99 36 -51 65 -100 65
-108 0 -17 -22 -28 -37 -19 -20 13 -163 225 -163 242 0 13 12 19 41 24 53 9
103 57 113 109 9 49 -16 103 -63 134 -30 20 -46 23 -142 23 l-109 0 0 -259 c0
-218 -2 -261 -15 -271 -12 -10 -18 -10 -30 0 -13 11 -15 55 -15 290 0 152 3
280 7 284 4 4 76 6 159 4 148 -3 151 -3 188 -32z m-250 -61 c-4 -8 -10 -15
-15 -15 -5 0 -9 7 -9 15 0 8 7 15 15 15 9 0 12 -6 9 -15z m188 -33 c31 -30 30
-88 -1 -113 -28 -23 -106 -26 -114 -5 -8 19 11 33 48 38 22 2 31 9 33 26 3 21
0 22 -56 22 -67 0 -92 6 -92 24 0 28 25 38 93 34 53 -3 72 -8 89 -26z m-127
-83 c-8 -8 -15 -20 -15 -26 0 -17 49 -65 60 -58 16 10 12 -11 -5 -25 -8 -7
-15 -19 -15 -28 0 -13 -3 -12 -20 3 -18 16 -23 17 -48 4 -15 -7 -30 -15 -34
-17 -6 -3 -5 160 1 189 0 4 21 -1 46 -9 39 -15 43 -18 30 -33z m58 -244 c57
-80 80 -125 63 -125 -2 0 -11 -3 -19 -6 -11 -4 -28 14 -57 55 -22 34 -43 61
-45 61 -2 0 -2 -22 2 -48 4 -37 2 -51 -11 -61 -13 -11 -19 -11 -31 -1 -11 10
-15 35 -15 110 0 53 3 100 7 103 20 20 45 -1 106 -88z"/>
<path d="M1255 606 c-93 -44 -149 -116 -175 -225 -24 -101 11 -228 84 -305 62
-66 93 -76 236 -76 108 0 126 3 168 24 60 30 118 93 144 156 20 47 20 49 2 74
-25 34 -47 32 -76 -4 l-23 -29 3 79 4 79 21 -19 c26 -25 38 -25 65 0 27 25 27
27 3 82 -29 66 -85 123 -153 157 -56 28 -69 31 -157 30 -79 0 -105 -4 -146
-23z m220 -1 c81 -14 165 -76 205 -155 26 -51 26 -80 0 -80 -14 0 -27 15 -44
49 -84 165 -322 189 -432 44 -67 -88 -67 -218 0 -306 110 -145 348 -121 432
44 17 34 30 49 44 49 25 0 26 -29 4 -73 -55 -107 -136 -159 -260 -165 -139 -7
-234 42 -292 152 -24 45 -27 62 -27 146 0 84 3 101 27 146 30 57 84 109 137
131 42 18 117 32 146 27 11 -1 38 -6 60 -9z m-155 -90 c0 -2 -10 -9 -22 -15
-22 -11 -22 -10 -4 4 21 17 26 19 26 11z m157 -26 c64 -24 123 -109 123 -179
0 -70 -59 -155 -123 -179 -36 -14 -108 -14 -144 0 -30 11 -79 53 -94 81 -6 12
-4 22 7 33 16 15 19 14 53 -19 58 -57 107 -68 167 -40 44 21 74 70 74 124 0
53 -23 92 -70 119 -63 35 -115 24 -174 -38 -23 -24 -33 -28 -47 -20 -11 5 -19
14 -19 19 0 17 65 83 95 96 37 16 114 18 152 3z m98 -29 c10 -11 16 -20 13
-20 -3 0 -13 9 -23 20 -10 11 -16 20 -13 20 3 0 13 -9 23 -20z m-345 -21 c-7
-11 -14 -18 -17 -15 -3 3 0 12 7 21 18 21 23 19 10 -6z m380 -24 c0 -8 -2 -15
-4 -15 -2 0 -6 7 -10 15 -3 8 -1 15 4 15 6 0 10 -7 10 -15z m-142 -16 c55 -50
63 -98 27 -153 -39 -59 -103 -61 -175 -7 -52 39 -70 42 -97 15 -7 -7 -13 -17
-13 -23 0 -6 -4 -11 -9 -11 -18 0 -28 124 -13 163 7 16 10 14 30 -13 29 -39
52 -38 94 3 37 38 49 43 99 45 23 1 43 -5 57 -19z m-236 -219 c9 -17 33 -40
53 -51 36 -22 43 -29 25 -29 -13 0 -88 68 -101 92 -17 31 5 20 23 -12z"/>
<path d="M1800 615 c-17 -20 -15 -582 2 -602 14 -18 63 -16 78 2 12 14 15 14
30 0 9 -8 28 -15 42 -15 43 0 53 24 50 112 -1 43 1 78 6 78 5 0 26 -20 46 -45
21 -25 45 -45 53 -45 9 0 36 20 59 45 49 53 54 48 54 -54 0 -39 5 -72 12 -79
17 -17 63 -15 78 3 12 14 15 14 30 0 9 -8 28 -15 42 -15 52 0 53 9 50 319 -2
181 -7 290 -14 298 -13 16 -60 17 -76 1 -9 -9 -15 -9 -24 0 -7 7 -24 12 -40
12 -23 0 -37 -13 -85 -79 -32 -44 -63 -88 -70 -98 -14 -20 -11 -22 -65 55 -75
107 -89 122 -116 122 -16 0 -33 -5 -40 -12 -9 -9 -15 -9 -24 0 -17 17 -63 15
-78 -3z m68 -296 c2 -246 0 -288 -13 -299 -12 -10 -18 -10 -30 0 -13 11 -15
56 -15 295 0 155 3 285 7 289 4 4 16 6 28 4 20 -3 20 -10 23 -289z m155 194
c38 -54 72 -105 78 -113 8 -13 10 -13 18 0 6 8 40 59 78 113 52 75 72 97 88
95 11 -2 21 -10 23 -18 3 -17 -176 -272 -195 -277 -16 -6 -206 264 -199 282
13 35 43 13 109 -82z m385 -194 c2 -246 0 -288 -13 -299 -12 -10 -18 -10 -30
0 -13 11 -15 56 -15 295 0 155 3 285 7 289 4 4 16 6 28 4 20 -3 20 -10 23
-289z m-455 155 l36 -50 -28 4 c-17 2 -32 -2 -40 -12 -23 -27 -27 -18 -29 61
-2 86 -2 86 61 -3z m373 -8 c-1 -46 -4 -62 -13 -59 -7 3 -13 10 -13 15 0 6
-13 8 -30 6 -16 -3 -30 -3 -30 0 0 12 71 102 81 102 3 0 6 -29 5 -64z m-291
-164 c39 -55 72 -101 75 -101 3 0 34 42 69 94 76 113 85 122 106 105 12 -10
15 -44 15 -190 0 -146 -3 -180 -15 -190 -12 -10 -18 -10 -31 1 -13 11 -15 33
-12 141 1 70 0 128 -3 128 -3 0 -11 -10 -16 -22 -17 -36 -102 -148 -112 -148
-8 0 -95 114 -126 165 -7 11 -9 -25 -7 -117 3 -113 1 -136 -12 -147 -13 -11
-19 -11 -31 -1 -12 10 -15 44 -15 189 0 175 6 207 35 198 5 -2 42 -49 80 -105z
m95 -4 c26 16 25 4 -1 -28 l-21 -24 -19 24 c-24 32 -24 43 1 28 16 -10 24 -10
40 0z"/>
<path d="M2686 608 c-8 -13 -62 -144 -121 -291 -102 -258 -106 -270 -90 -293
19 -29 55 -31 80 -4 l18 20 22 -20 c27 -25 51 -25 72 0 24 28 103 28 128 0 23
-26 57 -26 80 0 l18 20 19 -20 c22 -24 60 -26 78 -5 7 8 10 29 7 47 -4 29
-201 523 -221 556 -13 22 -74 15 -90 -10z m181 -273 c62 -154 112 -287 110
-295 -1 -8 -11 -15 -21 -15 -25 0 -22 -6 -131 265 -66 164 -96 229 -101 215
-3 -11 -47 -123 -97 -250 -77 -191 -96 -230 -112 -230 -11 0 -21 7 -23 16 -3
16 202 542 221 567 25 32 43 0 154 -273z m-113 72 c7 -19 17 -44 21 -55 6 -21
5 -21 -19 -11 -20 10 -30 9 -51 -5 -14 -9 -25 -15 -25 -12 0 9 50 116 55 116
2 0 11 -15 19 -33z m22 -141 c28 -60 30 -82 8 -90 -23 -9 -87 -7 -102 3 -23
14 -10 46 21 49 32 4 32 4 12 42 -13 26 -13 30 1 44 21 22 32 13 60 -48z m-92
7 c3 -11 -4 -24 -15 -31 -21 -14 -24 -5 -9 34 11 29 18 28 24 -3z m-32 -122
c-9 -2 -23 -8 -29 -13 -17 -13 -17 2 -1 37 l12 26 17 -23 c17 -22 17 -23 1
-27z m198 13 c6 -14 10 -27 10 -28 0 -2 -16 2 -34 8 -33 10 -34 12 -19 28 22
24 32 23 43 -8z m0 -79 c7 -20 9 -42 6 -50 -9 -23 -35 -18 -48 10 -10 23 -17
25 -75 25 -58 0 -64 -2 -75 -25 -12 -26 -45 -34 -54 -12 -2 7 2 30 11 50 l15
37 104 0 104 0 12 -35z"/>
</g>
</svg>
